<?xml version="1.0" encoding="UTF-8"?>
<svg width="396px" height="246px" viewBox="0 0 396 246" version="1.1" xmlns="http://www.w3.org/2000/svg" xmlns:xlink="http://www.w3.org/1999/xlink">
    <title>LCDP引导页插画</title>
    <defs>
        <rect id="path-1" x="116" y="72" width="138" height="118" rx="4"></rect>
        <mask id="mask-2" maskContentUnits="userSpaceOnUse" maskUnits="objectBoundingBox" x="0" y="0" width="138" height="118" fill="white">
            <use xlink:href="#path-1"></use>
        </mask>
        <rect id="path-3" x="0" y="0" width="112" height="96" rx="4"></rect>
        <rect id="path-5" x="0" y="0" width="50" height="37" rx="3"></rect>
        <filter x="-14.0%" y="-13.5%" width="128.0%" height="137.8%" filterUnits="objectBoundingBox" id="filter-6">
            <feOffset dx="0" dy="2" in="SourceAlpha" result="shadowOffsetOuter1"></feOffset>
            <feGaussianBlur stdDeviation="2" in="shadowOffsetOuter1" result="shadowBlurOuter1"></feGaussianBlur>
            <feColorMatrix values="0 0 0 0 0.580883367   0 0 0 0 0.644650838   0 0 0 0 0.740302044  0 0 0 0.45 0" type="matrix" in="shadowBlurOuter1"></feColorMatrix>
        </filter>
    </defs>
    <g id="页面-1" stroke="none" stroke-width="1" fill="none" fill-rule="evenodd">
        <g id="工作区空备份-2" transform="translate(-485.000000, -260.000000)">
            <g id="LCDP引导页插画" transform="translate(485.000000, 260.000000)">
                <rect id="矩形" fill="#D8E7FF" fill-rule="nonzero" x="100" y="0" width="280" height="210" rx="6"></rect>
                <path d="M106,0 L374,0 C377.313708,2.79460044e-16 380,2.6862915 380,6 L380,24 L380,24 L100,24 L100,6 C100,2.6862915 102.686292,1.4968968e-15 106,0 Z" id="矩形备份-2" fill="#98BDF9" opacity="0.529452369"></path>
                <rect id="矩形备份-4" fill="#98BDF9" x="352" y="6" width="12" height="12" rx="2"></rect>
                <rect id="矩形备份-9" fill="#98BDF9" x="332" y="6" width="12" height="12" rx="2"></rect>
                <rect id="矩形备份-43" fill="#98BDF9" x="312" y="6" width="12" height="12" rx="2"></rect>
                <rect id="矩形备份-4" fill="#98BDF9" x="116" y="36" width="248" height="24" rx="4"></rect>
                <use id="矩形备份-8" stroke-opacity="0.93014505" stroke="#9FC1F9" mask="url(#mask-2)" stroke-width="4" fill="#F0F6FF" stroke-dasharray="6" xlink:href="#path-1"></use>
                <g id="编组-6-+-编组-6备份蒙版" transform="translate(140.000000, 92.000000)">
                    <mask id="mask-4" fill="white">
                        <use xlink:href="#path-3"></use>
                    </mask>
                    <use id="蒙版" fill="#F0F6FF" xlink:href="#path-3"></use>
                    <g id="编组-6" opacity="0.400000006" mask="url(#mask-4)">
                        <g transform="translate(58.000000, 62.000000)">
                            <rect id="矩形备份-12" fill="none" x="0" y="0" width="44" height="44"></rect>
                            <path d="M25.5731262,2 C26.3724375,2 27.031339,2.62677956 27.0712547,3.42509357 L27.2987908,7.96274103 C28.7311231,8.5036949 30.0589345,9.25758553 31.2436137,10.1858014 L35.5831919,8.22826729 C36.2856026,7.91127301 37.1139352,8.1781036 37.4992487,8.84548631 L41.1417674,15.1545137 C41.527081,15.8218964 41.3439968,16.6726687 40.7182663,17.1224771 L36.8543468,19.9013166 C36.9503586,20.5871026 37,21.2877541 37,22 C37,22.712592 36.9503103,23.4135783 36.8542068,24.0996831 L40.7182663,26.8775229 C41.3439968,27.3273313 41.527081,28.1781036 41.1417674,28.8454863 L37.4992487,35.1545137 C37.1139352,35.8218964 36.2856026,36.088727 35.5831919,35.7717327 L31.2436137,33.8141986 C30.0589345,34.7424145 28.7311231,35.4963051 27.2987908,36.037259 L27.0712547,40.5749064 C27.031339,41.3732204 26.3724375,42 25.5731262,42 L18.4268738,42 C17.6275625,42 16.968661,41.3732204 16.9287453,40.5749064 L16.7014205,36.0373388 C15.2690076,35.4963793 13.9411237,34.7424601 12.7563863,33.8141986 L8.41680813,35.7717327 C7.71439738,36.088727 6.88606484,35.8218964 6.50075125,35.1545137 L2.8582326,28.8454863 C2.47291901,28.1781036 2.65600321,27.3273313 3.28173369,26.8775229 L7.14579322,24.0996831 C7.0496897,23.4135783 7,22.712592 7,22 C7,21.287408 7.0496897,20.5864217 7.14579322,19.9003169 L3.28173369,17.1224771 C2.65600321,16.6726687 2.47291901,15.8218964 2.8582326,15.1545137 L6.50075125,8.84548631 C6.88606484,8.1781036 7.71439738,7.91127301 8.41680813,8.22826729 L12.7563863,10.1858014 C13.9411237,9.25753987 15.2690076,8.50362073 16.7014205,7.9626612 L16.9287453,3.42509357 C16.968661,2.62677956 17.6275625,2 18.4268738,2 L25.5731262,2 Z M22,15 C18.1340068,15 15,18.1340068 15,22 C15,25.8659932 18.1340068,29 22,29 C25.8659932,29 29,25.8659932 29,22 C29,18.1340068 25.8659932,15 22,15 Z M22,18 C24.209139,18 26,19.790861 26,22 C26,24.209139 24.209139,26 22,26 C19.790861,26 18,24.209139 18,22 C18,19.790861 19.790861,18 22,18 Z" id="形状结合" fill="#98BDF9" fill-rule="evenodd"></path>
                        </g>
                    </g>
                    <g id="编组-6备份-2" opacity="0.300000012" mask="url(#mask-4)">
                        <g transform="translate(85.000000, 41.000000)">
                            <rect id="矩形备份-12" fill="none" x="0" y="0" width="35" height="35"></rect>
                            <path d="M20.3357737,1.59090909 C20.9752227,1.59090909 21.5023439,2.09233274 21.5342765,2.73098395 L21.7148277,6.3339534 C22.8542349,6.76426321 23.9104949,7.36396934 24.8528903,8.10235433 L28.2991876,6.54775078 C28.8611162,6.29415535 29.5237822,6.50761982 29.8320331,7.04152599 L32.7233207,12.0493831 C33.0315716,12.5832893 32.8851042,13.2639071 32.3845198,13.6237539 L29.3158747,15.83 C29.3923021,16.3757006 29.4318182,16.9332356 29.4318182,17.5 C29.4318182,18.0671105 29.3922538,18.6249802 29.3157346,19.1709995 L32.3845198,21.3762461 C32.8851042,21.7360929 33.0315716,22.4167107 32.7233207,22.9506169 L29.8320331,27.958474 C29.5237822,28.4923802 28.8611162,28.7058447 28.2991876,28.4522492 L24.8528903,26.8976457 C23.9104949,27.6360307 22.8542349,28.2357368 21.7148277,28.6660466 L21.5342765,32.269016 C21.5023439,32.9076673 20.9752227,33.4090909 20.3357737,33.4090909 L14.6642263,33.4090909 C14.0247773,33.4090909 13.4976561,32.9076673 13.4657235,32.269016 L13.2861709,28.6664237 C12.1462363,28.2360321 11.0895097,27.6360927 10.1467474,26.8973618 L6.70081245,28.4522492 C6.13888385,28.7058447 5.47621782,28.4923802 5.16796695,27.958474 L2.2766793,22.9506169 C1.96842843,22.4167107 2.11489578,21.7360929 2.61548017,21.3762461 L5.68412534,19.17 C5.60769794,18.6242994 5.56818182,18.0667644 5.56818182,17.5 C5.56818182,16.9332356 5.60769794,16.3757006 5.68412534,15.83 L2.61548017,13.6237539 C2.11489578,13.2639071 1.96842843,12.5832893 2.2766793,12.0493831 L5.16796695,7.04152599 C5.47621782,6.50761982 6.13888385,6.29415535 6.70081245,6.54775078 L10.1477528,8.10185051 C11.0902609,7.36348083 12.1466414,6.76381497 13.2861709,6.33357631 L13.4657235,2.73098395 C13.4976561,2.09233274 14.0247773,1.59090909 14.6642263,1.59090909 L20.3357737,1.59090909 Z M17.5,11.9318182 C14.4247781,11.9318182 11.9318182,14.4247781 11.9318182,17.5 C11.9318182,20.5752219 14.4247781,23.0681818 17.5,23.0681818 C20.5752219,23.0681818 23.0681818,20.5752219 23.0681818,17.5 C23.0681818,14.4247781 20.5752219,11.9318182 17.5,11.9318182 Z M17.5,14.3181818 C19.2572697,14.3181818 20.6818182,15.7427303 20.6818182,17.5 C20.6818182,19.2572697 19.2572697,20.6818182 17.5,20.6818182 C15.7427303,20.6818182 14.3181818,19.2572697 14.3181818,17.5 C14.3181818,15.7427303 15.7427303,14.3181818 17.5,14.3181818 Z" id="形状结合" fill="#98BDF9" fill-rule="evenodd"></path>
                        </g>
                    </g>
                </g>
                <rect id="矩形备份-37" fill="#98BDF9" x="276" y="162" width="88" height="10" rx="2"></rect>
                <rect id="矩形备份-41" fill="#98BDF9" x="276" y="180" width="88" height="10" rx="2"></rect>
                <rect id="矩形备份-36" fill="#98BDF9" x="276" y="144" width="88" height="10" rx="2"></rect>
                <rect id="矩形备份-34" fill="#98BDF9" x="276" y="126" width="88" height="10" rx="2"></rect>
                <rect id="矩形备份-13" fill="#98BDF9" x="276" y="108" width="88" height="10" rx="2"></rect>
                <rect id="矩形备份-11" fill="#98BDF9" x="276" y="90" width="88" height="10" rx="2"></rect>
                <rect id="矩形备份-10" fill="#98BDF9" x="276" y="72" width="88" height="10" rx="2"></rect>
                <rect id="矩形备份-5" fill="#D8E7FF" x="124" y="42" width="32" height="12" rx="2"></rect>
                <rect id="矩形备份-6" fill="#D8E7FF" x="164" y="42" width="32" height="12" rx="2"></rect>
                <rect id="矩形备份" fill="#D8E7FF" fill-rule="nonzero" x="16" y="0" width="72" height="210" rx="6"></rect>
                <path d="M22,0 L82,0 C85.3137085,-6.08718376e-16 88,2.6862915 88,6 L88,12 L88,12 L16,12 L16,6 C16,2.6862915 18.6862915,6.08718376e-16 22,0 Z" id="矩形备份-7" fill="#C8DCFC"></path>
                <g id="编组-10" transform="translate(24.000000, 20.000000)">
                    <rect id="矩形" fill="#9FC1F9" x="0" y="0" width="56" height="24" rx="2"></rect>
                    <text id="BTN" opacity="0.699999988" font-family="MiSans-Bold, MiSans" font-size="14" font-weight="bold" letter-spacing="2" fill="#FFFFFF">
                        <tspan x="10" y="18">BTN</tspan>
                    </text>
                </g>
                <g id="编组-9" transform="translate(24.000000, 56.000000)">
                    <rect id="矩形备份-38" fill="#E2ECFD" x="0" y="0" width="56" height="24" rx="2"></rect>
                    <path d="M2,0 L54,0 C55.1045695,-2.02906125e-16 56,0.8954305 56,2 L56,6 L56,6 L0,6 L0,2 C-1.3527075e-16,0.8954305 0.8954305,2.02906125e-16 2,0 Z" id="矩形备份-44" fill="#9FC1F9"></path>
                    <rect id="矩形备份-45" fill="#9FC1F9" x="0" y="8" width="17" height="7"></rect>
                    <rect id="矩形备份-47" fill="#9FC1F9" x="19" y="8" width="18" height="7"></rect>
                    <path d="M0,17 L17,17 L17,24 L2,24 C0.8954305,24 1.3527075e-16,23.1045695 0,22 L0,17 L0,17 Z" id="矩形备份-46" fill="#9FC1F9"></path>
                    <rect id="矩形备份-48" fill="#9FC1F9" x="19" y="17" width="18" height="7"></rect>
                    <rect id="矩形备份-50" fill="#9FC1F9" x="39" y="8" width="17" height="7"></rect>
                    <path d="M39,17 L56,17 L56,22 C56,23.1045695 55.1045695,24 54,24 L39,24 L39,24 L39,17 Z" id="矩形备份-49" fill="#9FC1F9"></path>
                </g>
                <g id="编组-21" transform="translate(24.000000, 92.000000)">
                    <rect id="矩形备份-39" stroke="#9FC1F9" stroke-width="3" fill="#E2ECFD" x="1.5" y="1.5" width="53" height="21" rx="2"></rect>
                    <rect id="矩形" fill="#9FC1F9" x="34" y="5" width="3" height="14"></rect>
                    <text id="123" font-family="MiSans-Bold, MiSans" font-size="14" font-weight="bold" fill="#9FC1F9">
                        <tspan x="6" y="17.3">123</tspan>
                    </text>
                </g>
                <g id="编组-11" transform="translate(24.000000, 164.000000)">
                    <rect id="矩形备份-40" x="0" y="0" width="56" height="24" rx="2"></rect>
                    <rect id="矩形备份-51" fill="#9FC1F9" x="8" y="1" width="48" height="5" rx="2"></rect>
                    <rect id="矩形备份-53" fill="#9FC1F9" x="8" y="9" width="48" height="5" rx="2"></rect>
                    <rect id="矩形备份-52" fill="#9FC1F9" x="0" y="1" width="6" height="5" rx="2"></rect>
                    <rect id="矩形备份-54" fill="#9FC1F9" x="0" y="9" width="6" height="5" rx="2"></rect>
                    <rect id="矩形备份-56" fill="#9FC1F9" x="8" y="17" width="48" height="5" rx="2"></rect>
                    <rect id="矩形备份-55" fill="#9FC1F9" x="0" y="17" width="6" height="5" rx="2"></rect>
                </g>
                <g id="编组-19" transform="translate(24.000000, 128.000000)">
                    <rect id="矩形备份-42" stroke="#9FC1F9" stroke-width="3" fill="#E2ECFD" x="1.5" y="1.5" width="53" height="21" rx="2"></rect>
                    <rect id="矩形备份-59" fill="#9FC1F9" x="6" y="6" width="44" height="4" rx="2"></rect>
                    <rect id="矩形备份-60" fill="#9FC1F9" x="6" y="13" width="32" height="4" rx="2"></rect>
                </g>
                <rect id="矩形备份-55" fill="#9FC1F9" x="24" y="200" width="50" height="4" rx="2"></rect>
                <ellipse id="1" fill="#D8E7FF" fill-rule="nonzero" opacity="0.600000024" cx="198" cy="233" rx="198" ry="13"></ellipse>
                <g id="编组-2" transform="translate(60.590000, 53.983637)">
                    <g id="编组-14" transform="translate(97.410000, 68.516363) rotate(15.000000) translate(-97.410000, -68.516363) translate(72.410000, 50.016363)" fill-rule="nonzero">
                        <g id="矩形">
                            <use fill="black" fill-opacity="1" filter="url(#filter-6)" xlink:href="#path-5"></use>
                            <use fill="#9FC1F9" xlink:href="#path-5"></use>
                        </g>
                        <rect id="矩形备份-19" fill="#FFFFFF" x="3" y="12" width="8" height="22"></rect>
                        <rect id="矩形备份-35" fill="#FFFFFF" x="3" y="3" width="44" height="7"></rect>
                        <rect id="矩形备份-20" fill="#FFFFFF" x="13" y="12" width="16" height="6"></rect>
                        <rect id="矩形备份-23" fill="#FFFFFF" x="13" y="20" width="16" height="6"></rect>
                        <rect id="矩形备份-21" fill="#FFFFFF" x="31" y="12" width="16" height="6"></rect>
                        <rect id="矩形备份-24" fill="#FFFFFF" x="31" y="20" width="16" height="6"></rect>
                        <rect id="矩形备份-28" fill="#FFFFFF" x="13" y="28" width="16" height="6"></rect>
                        <rect id="矩形备份-27" fill="#FFFFFF" x="31" y="28" width="16" height="6"></rect>
                    </g>
                    <g id="freepik--Character--inject-2" transform="translate(39.034762, 90.098406) scale(-1, 1) translate(-39.034762, -90.098406) ">
                        <path d="M53.1654272,65.5435728 L57.948685,68.5633063 L55.569135,72.3983678 L51.9092181,70.0429757 L53.1654272,65.5435728 Z M58.8123288,30.0617047 C60.5033795,32.8700568 62.0313646,35.6723695 63.4868762,38.5773531 C64.9613926,41.5067491 66.2739329,44.514906 67.4185691,47.5882377 C67.5635163,47.980803 67.7024241,48.3794079 67.8292529,48.7961311 L68.0285553,49.4000778 L68.1312262,49.7020511 L68.2036998,49.9436298 C68.2036998,50.0463007 68.258055,50.1489717 68.2822129,50.2516426 C68.5356632,51.5542195 68.4184839,52.9017808 67.9440027,54.1410593 C67.2747087,55.8925614 66.3263277,57.5241846 65.1356506,58.9726328 C63.3811637,61.1531474 61.4111677,63.1492629 59.256389,64.9310089 C59.031456,66.7885894 57.948685,68.5451879 57.948685,68.5451879 L53.1654272,65.5254544 L56.4518256,62.6386991 C58.0574054,60.5257914 59.548987,58.3282919 60.9201027,56.0555703 C61.2753519,55.447093 61.5979144,54.8201122 61.8864174,54.1772961 C62.1462265,53.6278688 62.348615,53.0530852 62.4903641,52.4620875 C62.5955515,52.0081209 62.5586437,51.6404264 62.5052426,51.6474235 L62.4903641,51.6588384 L62.4903641,51.6165621 L62.3816537,51.3629045 L62.1763118,50.8495498 C62.0374041,50.5113397 61.8924569,50.1670901 61.7354308,49.8228405 C60.5275374,47.074883 59.1022232,44.3148466 57.6406722,41.5789681 C56.1791212,38.8430896 54.6209387,36.0890927 53.1352299,33.4136089 L58.8123288,30.0617047 Z" id="形状结合" fill="#FFBF9F" fill-rule="nonzero"></path>
                        <path d="M38.6948645,10.4092794 C38.6284304,10.753529 38.3868517,11.0132261 38.1633914,10.9588709 C37.9399311,10.9045157 37.8070629,10.5965029 37.873497,10.2522533 C37.9399311,9.90800364 38.1815098,9.64830656 38.4049701,9.70266176 C38.6284304,9.75701696 38.7612986,10.0650298 38.6948645,10.4092794 Z" id="路径" fill="#263238" fill-rule="nonzero"></path>
                        <path d="M38.4230885,11.0071866 C37.8062434,11.9842446 37.0561664,12.8705145 36.1945252,13.6403942 C36.6056061,14.0778402 37.1897133,14.3101556 37.7889445,14.2745382 L38.4230885,11.0071866 Z" id="路径" fill="#EC947E" fill-rule="nonzero"></path>
                        <path d="M40.33156,8.73634706 C40.3831528,8.73689201 40.4329465,8.71740754 40.4704678,8.68199185 C40.5510343,8.59979759 40.5510343,8.46825224 40.4704678,8.38605798 C40.0260525,7.88664844 39.364179,7.6381635 38.700904,7.72171662 C38.6476216,7.73049698 38.6001828,7.76052274 38.5694449,7.80492192 C38.5387071,7.84932109 38.5273014,7.90429285 38.5378384,7.95725583 C38.5563412,8.06889741 38.6616805,8.14452562 38.7733776,8.1263609 L38.7733776,8.1263609 C39.2987522,8.07276317 39.8178593,8.27501269 40.1684944,8.66991292 C40.2110495,8.7140615 40.2702686,8.73818779 40.33156,8.73634706 Z" id="路径" fill="#263238" fill-rule="nonzero"></path>
                        <path d="M46.9749736,14.582551 C46.3710269,17.777429 45.724804,23.6417514 47.9594067,25.7616043 C47.9594067,25.7616043 47.083684,28.9987585 41.1529275,28.9987585 C34.6242638,28.9987585 38.2841807,26.2568406 38.2841807,26.2568406 C41.0502566,23.8410538 41.7447953,21.3407145 41.1287697,18.8645331 L46.9749736,14.582551 Z" id="路径" fill="#FFBF9F" fill-rule="nonzero"></path>
                        <path d="M48.6901822,26.727919 C49.0223529,25.5200256 49.3847209,24.1551061 48.3338537,23.8350143 C47.1803155,23.4847253 41.0442171,23.5934357 39.0209957,24.6503424 C36.9977743,25.7072491 37.8131023,28.0022465 37.8131023,28.0022465 L48.6901822,26.727919 Z" id="路径" fill="#8CAFFF" fill-rule="nonzero"></path>
                        <path d="M69.8766322,173.837254 C69.5210405,173.965189 69.1287602,173.943396 68.7895281,173.776859 C68.6587658,173.652237 68.6201247,173.459031 68.6928966,173.293702 C68.7318874,173.158385 68.8293714,173.047607 68.9586332,172.991729 C69.5625799,172.707874 70.9033415,173.263505 70.9576967,173.287663 C70.994521,173.30425 71.0181994,173.340886 71.0181994,173.381274 C71.0181994,173.421662 70.994521,173.458298 70.9576967,173.474886 C70.6112589,173.633789 70.2488519,173.755267 69.8766322,173.837254 Z M69.1639751,173.136676 L69.0431857,173.178952 C68.9679781,173.211878 68.9107101,173.275754 68.8861596,173.354097 C68.8318044,173.54132 68.8861596,173.601715 68.9223964,173.619833 C69.1579356,173.819136 70.0336583,173.619833 70.6436445,173.390333 C70.1761213,173.194383 69.6700687,173.107631 69.1639751,173.136676 L69.1639751,173.136676 Z" id="形状" fill="#407BFF" fill-rule="nonzero"></path>
                        <path d="M70.9395783,173.480925 L70.8912626,173.480925 C70.3960263,173.335978 69.3391196,172.587084 69.3270357,172.091848 C69.3261841,171.932306 69.4369384,171.793863 69.5927772,171.759677 C69.7438184,171.704813 69.9112157,171.718029 70.0517767,171.795914 C70.6557234,172.091848 70.999973,173.299741 71.0180914,173.354097 C71.0273748,173.381432 71.0239501,173.411487 71.0087548,173.436033 C70.9935596,173.460579 70.9681854,173.477046 70.9395783,173.480925 L70.9395783,173.480925 Z M69.731685,171.940861 L69.6833692,171.940861 C69.5565404,171.983138 69.5565404,172.049572 69.5565404,172.07373 C69.5565404,172.369664 70.263158,172.955492 70.7644338,173.197071 C70.6213159,172.725715 70.3443582,172.306082 69.9672242,171.989177 C69.8833403,171.934558 69.7805996,171.91707 69.6833692,171.940861 L69.731685,171.940861 Z" id="形状" fill="#407BFF" fill-rule="nonzero"></path>
                        <path d="M37.6741946,175.975225 C37.1125242,175.975225 36.5750116,175.896712 36.3938276,175.643055 C36.2971172,175.509777 36.2971172,175.329412 36.3938276,175.196134 C36.4636199,175.073232 36.5820528,174.985504 36.7199588,174.954555 C37.4507343,174.755253 38.97268,175.624936 39.0391141,175.661173 C39.0753768,175.684601 39.0943396,175.727267 39.0874298,175.769883 C39.0810686,175.811499 39.0499475,175.845014 39.0089168,175.854436 C38.5682652,175.932667 38.1217315,175.973077 37.6741946,175.975225 Z M36.9796559,175.1297 C36.9135672,175.120119 36.8464422,175.120119 36.7803535,175.1297 C36.6953168,175.145154 36.6219536,175.198509 36.5810511,175.274647 C36.5085775,175.401476 36.5327353,175.461871 36.5810511,175.498107 C36.786393,175.781962 37.8916154,175.788002 38.700904,175.673252 C38.1732118,175.384741 37.5950386,175.200218 36.9977743,175.1297 L36.9796559,175.1297 Z" id="形状" fill="#407BFF" fill-rule="nonzero"></path>
                        <path d="M39.0089168,175.836318 L38.9666405,175.836318 C38.4412069,175.600778 37.3963791,174.658622 37.4748922,174.163385 C37.4748922,174.048635 37.5775631,173.903688 37.8614181,173.873491 C38.069288,173.853927 38.2762323,173.919278 38.4351674,174.054675 C38.8340658,174.527789 39.0710981,175.116137 39.1115877,175.733647 C39.1163822,175.771187 39.1001361,175.808321 39.0693114,175.830278 C39.0502486,175.838332 39.0291969,175.840437 39.0089168,175.836318 L39.0089168,175.836318 Z M37.9459706,174.066754 L37.8855759,174.066754 C37.6983525,174.066754 37.6862735,174.163385 37.6802341,174.187543 C37.6319183,174.483477 38.3445754,175.226331 38.8881274,175.546423 C38.8322468,175.045476 38.6210715,174.574555 38.2841807,174.199622 C38.1880559,174.123504 38.0685688,174.082964 37.9459706,174.084872 L37.9459706,174.066754 Z" id="形状" fill="#407BFF" fill-rule="nonzero"></path>
                        <polygon id="路径" fill="#FFBF9F" fill-rule="nonzero" points="43.810293 175.751765 39.4437584 175.751765 39.0089168 165.641697 43.3754514 165.641697"></polygon>
                        <polygon id="路径" fill="#FFBF9F" fill-rule="nonzero" points="75.8073887 172.321348 71.5374856 173.245386 67.2555035 163.829857 71.5254066 162.905819"></polygon>
                        <path d="M71.1328413,172.816584 L75.9221385,171.783835 C76.0970202,171.744491 76.2756438,171.832545 76.3509407,171.995217 L78.0117941,175.618897 C78.0930871,175.79712 78.0883093,176.002754 77.9988266,176.17701 C77.9093439,176.351265 77.7450061,176.474962 77.5527946,176.512738 C75.8738228,176.844909 75.0403764,176.923422 72.9326024,177.376382 C71.634117,177.660237 68.7049756,178.372894 66.8931355,178.75942 C65.0812954,179.145945 64.4773487,177.424697 65.1839664,177.110645 C68.3124102,175.679291 69.6229746,174.417043 70.4684999,173.245386 C70.6290899,173.024993 70.8658704,172.872162 71.1328413,172.816584 Z" id="路径" fill="#515B5F" fill-rule="nonzero"></path>
                        <path d="M39.4860347,175.232355 L44.2511741,175.232355 C44.4300332,175.230739 44.5858803,175.353909 44.625621,175.528305 L45.4892648,179.411682 C45.533046,179.597963 45.4903694,179.794053 45.3731314,179.94529 C45.2558935,180.096527 45.0766321,180.186737 44.8853181,180.190773 C43.16407,180.160576 40.6576912,180.057905 38.51972,180.057905 C35.9891833,180.057905 36.0314596,180.196813 33.0841997,180.196813 C31.2723597,180.196813 30.7952418,178.384973 31.5441357,178.221907 C34.9564345,177.473013 35.5181049,177.3945 38.4714042,175.570581 C38.773929,175.37046 39.1239421,175.253789 39.4860347,175.232355 L39.4860347,175.232355 Z" id="路径" fill="#515B5F" fill-rule="nonzero"></path>
                        <path d="M1.60045873,68.5995431 L0,65.7307963 L1.99906355,63.4237199 L5.78,62.2388344 L6.76703394,61.2441329 C8.57377821,59.4342746 10.4060015,57.6303613 12.2178416,55.8502284 C13.4257349,54.642335 14.6336283,53.4827574 15.7690481,52.3050614 C16.3307185,51.7011147 16.8984284,51.097168 17.3695068,50.5717343 L17.695638,50.179169 L18.0519666,49.71413 C18.2875058,49.3940383 18.5290845,49.1101834 18.7585842,48.7598943 C20.6368584,46.1387656 22.3822644,43.2941767 24.1337098,40.4314694 C25.8851552,37.5687621 27.5701664,34.6456601 29.2189409,31.7648344 L34.9926713,34.9536729 C33.3257784,38.0398405 31.574333,40.9931398 29.6960588,43.9162418 C27.8115527,46.8900671 25.760921,49.7553057 23.553921,52.4983243 C23.2761055,52.8486134 22.9499743,53.192863 22.6600799,53.5371126 L22.2071198,54.0625462 L21.6696073,54.6121377 C21.3132787,54.9745057 20.9871475,55.2644001 20.6368584,55.5844919 L19.622228,56.4662541 C18.2693874,57.6077133 16.9044679,58.6706595 15.5274694,59.7154873 C13.192423,61.4782685 10.8141491,63.1502719 8.3707049,64.7461262 C7.30363295,67.3206104 3.99208763,67.7600572 3.99208763,67.7600572 L1.60045873,68.5995431 Z" id="形状结合" fill="#FFBF9F" fill-rule="nonzero"></path>
                        <path d="M57.121278,26.7520769 C61.2281155,27.6942337 66.0234523,42.3640988 66.0234523,42.3640988 L59.0237101,46.9420147 C59.0237101,46.9420147 54.572623,40.1053382 52.2595072,35.2314884 C49.8316415,30.1462573 52.9359275,25.7978411 57.121278,26.7520769 Z" id="路径" fill="#8CAFFF" fill-rule="nonzero"></path>
                        <g id="编组" opacity="0.7" transform="translate(51.405728, 26.619752)"></g>
                        <path d="M54.7960833,34.2832921 C54.4397547,33.8182531 53.4674006,34.8872388 52.7366251,36.2340399 C53.7512555,38.2391429 55.0316225,40.4616667 56.1670423,42.3580594 C56.8736599,38.6921029 55.7201217,35.4609881 54.7960833,34.2832921 Z" id="路径" fill="#407BFF" fill-rule="nonzero" opacity="0.5"></path>
                        <path d="M32.6614371,26.9815766 C32.6614371,26.9815766 28.017087,32.2298733 32.40174,64.7101264 L55.7503191,64.7101264 C55.9133847,61.1287225 53.6606635,43.6444658 57.121278,26.7520769 C54.5383399,26.254725 51.9257897,25.9258866 49.3001684,25.7676437 C45.995381,25.5742344 42.6821116,25.5742344 39.3773243,25.7676437 C37.1104047,25.9961127 34.8648922,26.4020012 32.6614371,26.9815766 Z" id="路径" fill="#8CAFFF" fill-rule="nonzero"></path>
                        <path d="M30.6865314,35.9139482 C30.4459547,39.7956145 30.4459547,43.6884529 30.6865314,47.5701193 C33.6579491,45.6616478 36.3877881,40.5824561 36.1220516,37.2245125 L30.6865314,35.9139482 Z" id="路径" fill="#407BFF" fill-rule="nonzero" opacity="0.5"></path>
                        <path d="M39.063272,29.8805207 C41.3582694,35.4428697 27.4674955,49.3336436 27.4674955,49.3336436 L20.2805299,43.8981234 C20.2805299,43.8981234 25.2510112,36.6145263 27.2983904,31.6138477 C29.8228876,25.4535915 37.3118266,25.6468544 39.063272,29.8805207 Z" id="路径" fill="#8CAFFF" fill-rule="nonzero"></path>
                        <path d="M22.5755273,41.8809415 C24.0914335,43.3606109 27.461456,46.5736073 29.0075596,47.4916062 C29.2350556,47.6321886 29.3165168,47.9238721 29.194783,48.1619871 C28.6814284,49.1222623 27.5158112,50.5294581 26.7427595,50.644208 C25.8308,50.7831157 18.7887816,46.1327262 18.6619528,45.1784904 C18.5834397,44.5322674 20.0691485,42.883493 21.0294238,41.8990599 C21.2312081,41.6901004 21.5082284,41.5705897 21.7986926,41.5671111 C22.0891567,41.5637819 22.3689015,41.676768 22.5755273,41.8809415 L22.5755273,41.8809415 Z" id="路径" fill="#8CAFFF" fill-rule="nonzero"></path>
                        <path d="M57.6587906,43.9283207 C59.5491437,42.9801244 63.6982575,40.8421532 65.0571376,39.7006939 C65.2649155,39.530333 65.5694879,39.5515206 65.7516763,39.7490096 C66.4945307,40.5462193 67.442727,42.1044017 67.3038193,42.871414 C67.1347142,43.7833735 60.4369454,48.9108809 59.500828,48.7296969 C58.8606445,48.5968287 57.7916589,46.6521203 57.1695938,45.4261085 C57.0316609,45.1633643 57.0058237,44.8560123 57.0979561,44.5739279 C57.1900886,44.2918434 57.3923621,44.0589954 57.6587906,43.9283207 L57.6587906,43.9283207 Z" id="路径" fill="#8CAFFF" fill-rule="nonzero"></path>
                        <polygon id="路径" fill="#000000" fill-rule="nonzero" opacity="0.2" points="39.0089168 165.641697 39.2323771 170.853757 43.6049511 170.853757 43.3814908 165.641697"></polygon>
                        <polygon id="路径" fill="#000000" fill-rule="nonzero" opacity="0.2" points="71.5254066 162.911858 67.2555035 163.835897 69.4659484 168.685589 73.7358515 167.76155"></polygon>
                        <path d="M50.3570751,11.9070672 C49.2760105,16.134694 48.8532478,18.6169149 46.2925139,20.3623209 C42.427255,23.0136468 37.5654842,20.054308 37.3722212,15.6213393 C37.2031162,11.6292517 39.0028773,5.43879812 43.4841618,4.55703595 C45.4955414,4.14470371 47.5766501,4.80759363 48.9789963,6.30729069 C50.3813424,7.80698774 50.9032748,9.92784212 50.3570751,11.9070672 Z" id="路径" fill="#FFBF9F" fill-rule="nonzero"></path>
                        <path d="M40.5369019,12.9156582 C39.8285865,11.5154371 40.1232298,9.81632708 41.2616379,8.73634706 C39.659524,5.01636259 38.0162801,-0.333926486 43.409524,0.0163625946 C43.6433165,1.41911757 46.7588575,0.948517438 49.409524,2.01636259 C52.4277019,3.23226302 53.909524,6.26636259 52.659524,8.26636259 C54.5015615,9.37158504 53.659524,12.2663626 51.8005077,14.5885905 C48.270009,18.9987844 48.8834452,20.7246889 45.6644093,20.1449001 C42.7292284,19.613427 40.1926523,16.327957 40.5369019,12.9156582 Z" id="路径" fill="#263238" fill-rule="nonzero"></path>
                        <path d="M42.1917158,12.2875536 C42.0277597,13.2685729 41.4489238,14.1313245 40.603336,14.6550246 C39.5222715,15.2589713 38.882088,14.7999718 38.8639696,13.676631 C38.8639696,12.66804 39.3169296,11.0313445 40.3798758,10.6568975 C41.4428219,10.2824506 42.3306236,11.1642128 42.1917158,12.2875536 Z" id="路径" fill="#FFBF9F" fill-rule="nonzero"></path>
                        <path d="M40.693928,64.7101264 C40.693928,64.7101264 45.6462909,98.0721416 48.364051,110.567799 C51.3475477,124.253231 67.2736219,168.129958 67.2736219,168.129958 L75.0826526,166.438907 C75.0826526,166.438907 63.160745,125.370532 61.4636548,111.811929 C59.6155779,97.0997874 55.7563585,64.7040869 55.7563585,64.7040869 L40.693928,64.7101264 Z" id="路径" fill="#515B5F" fill-rule="nonzero"></path>
                        <path d="M65.1779269,164.627067 C65.1416901,164.627067 66.8508592,168.347379 66.8508592,168.347379 L75.6443231,166.444947 L74.6840478,162.905819 L65.1779269,164.627067 Z" id="路径" fill="#407BFF" fill-rule="nonzero"></path>
                        <path d="M65.1779269,164.627067 C65.1416901,164.627067 66.8508592,168.347379 66.8508592,168.347379 L75.6443231,166.444947 L74.6840478,162.905819 L65.1779269,164.627067 Z" id="路径" fill="#FFFFFF" fill-rule="nonzero" opacity="0.7"></path>
                        <path d="M43.8163324,76.5957973 C49.5477865,77.7191381 48.9378004,99.0807326 48.2493012,110.066523 C46.6005267,102.299768 44.1787005,87.3581273 42.529926,76.7528234 C42.9275838,76.5530184 43.3822884,76.4975146 43.8163324,76.5957973 Z" id="路径" fill="#000000" fill-rule="nonzero" opacity="0.3"></path>
                        <path d="M32.40174,64.7101264 C32.40174,64.7101264 31.7977933,97.3232477 32.2809506,110.658391 C32.7701475,124.506888 37.6077605,169.845166 37.6077605,169.845166 L45.0061074,169.845166 C45.0061074,169.845166 45.2778834,125.316177 45.6100541,111.715297 C45.9663827,96.8944456 47.7601043,64.7101264 47.7601043,64.7101264 L32.40174,64.7101264 Z" id="路径" fill="#515B5F" fill-rule="nonzero"></path>
                        <path d="M36.1824463,165.998026 C36.1824463,165.998026 36.6052089,169.971995 36.6052089,169.971995 L45.5979752,169.971995 L45.8395539,166.348315 L36.1824463,165.998026 Z" id="路径" fill="#407BFF" fill-rule="nonzero"></path>
                        <path d="M36.1824463,165.998026 C36.1824463,165.998026 36.6052089,169.971995 36.6052089,169.971995 L45.5979752,169.971995 L45.8395539,166.348315 L36.1824463,165.998026 Z" id="路径" fill="#FFFFFF" fill-rule="nonzero" opacity="0.7"></path>
                    </g>
                </g>
            </g>
        </g>
    </g>
</svg>