<?xml version="1.0" encoding="UTF-8"?>
<svg width="90px" height="20px" viewBox="0 0 90 20" version="1.1" xmlns="http://www.w3.org/2000/svg" xmlns:xlink="http://www.w3.org/1999/xlink">
    <title>logo</title>
    <g id="页面-1" stroke="none" stroke-width="1" fill="none" fill-rule="evenodd">
        <g id="控件工属性" transform="translate(-14.000000, -10.000000)" fill-rule="nonzero">
            <g id="logo" transform="translate(14.000000, 10.000000)">
                <rect id="矩形" fill="#000000" opacity="0" x="0" y="0" width="90" height="20"></rect>
                <g id="编组" transform="translate(0.000000, 1.000000)" fill="#FFFFFF">
                    <path d="M56.0092938,10.842693 L57.6559448,5.48282851 C58.084487,4.15399746 58.342003,3.1462391 58.5479041,2.12263204 L58.5822209,2.12263204 C58.7365073,3.16099477 58.9767253,4.1690264 59.3369128,5.48282851 L60.7949607,10.8429663 L62.3556801,10.8429663 L65.6316843,0.549239242 L64.1052818,0.549239242 L62.5786002,5.74187268 C62.2184127,7.02479718 61.892542,8.17027523 61.6523241,9.30017784 L61.6182862,9.30017784 C61.4467019,8.21618179 61.1378502,6.99391954 60.8119796,5.77247706 L59.4055465,0.549512498 L57.844548,0.549512498 L56.3008475,5.74187268 C55.9063432,7.07043048 55.5461557,8.29214622 55.3575525,9.31548002 L55.3232357,9.31548002 C55.1173345,8.3227506 54.8087618,7.0398261 54.4655932,5.75744814 L53.093477,0.549239242 L51.5154596,0.549239242 L54.4485743,10.842693 L56.0092938,10.842693 L56.0092938,10.842693 Z" id="路径"></path>
                    <path d="M0.0393388293,12.7439898 C0.0393388293,12.7439898 10.1709023,10.6883049 20.3027447,12.2182504 C30.4340292,13.7479227 49.8236107,17.5726498 69.2131923,15.6601496 C88.6024949,13.7479227 90,12.7439898 90,12.7439898 L90,14.8955867 C90,14.8955867 80.1306954,17.2860071 65.719569,17.2860071 C51.3081635,17.2860071 43.0110174,16.0907969 32.3554941,14.4173934 C21.6999709,12.7439898 10.0835757,12.6284037 0.0393388293,15.0185507 L0.0393388293,12.7442631 L0.0393388293,12.7439898 Z" id="路径"></path>
                    <path d="M1.75769262,3.02354835 C1.75769262,2.32128723 2.3583771,1.48130642 3.93639446,1.48130642 C4.98264006,1.48130642 5.75462982,1.78653041 6.13183625,1.96988342 L6.13351024,1.96578461 L6.54029054,2.1685386 L6.54029054,0.894084975 L6.54363852,0.885887364 L6.54029054,0.883974589 L6.54029054,0.882608326 L6.53750054,0.882608326 C6.0224687,0.624110663 5.1670583,0.381461676 3.98800925,0.381461676 C1.74095269,0.381461676 0.248308956,1.5728463 0.248308956,3.17629697 C0.248308956,4.62727227 1.41452406,5.4975842 3.30139314,6.09327651 C4.86239158,6.62803332 5.479816,7.17754582 5.47981598,8.13994411 C5.47981598,9.17830684 4.58785673,9.8961434 3.06145414,9.8961434 C2.04031843,9.8961434 1.0713555,9.5955647 0.402595309,9.23295752 L0.00753297109,9.02364546 L0,10.3407266 L0.0111599559,10.3407266 C0.629700359,10.7063396 1.84529826,10.9954416 2.95878256,10.9954416 C5.68599611,10.9954416 7.00677657,9.62125055 7.00677657,8.0333753 C7.00677657,6.520918 6.01186675,5.68093718 4.05636396,5.0090072 C2.46132767,4.4594947 1.75769262,3.98594665 1.75769262,3.02354835 Z M13.9876063,10.8429663 L15.3254056,10.8429663 C15.2740698,10.2623029 15.2570509,9.59064615 15.2570509,8.82717629 L15.2570509,3.4514631 L13.7473883,3.4514631 L13.7473883,7.98746874 C13.7473883,8.23148399 13.6960525,8.47549922 13.6103998,8.67415441 C13.335865,9.26984672 12.6325089,9.8961434 11.6205802,9.8961434 C10.248464,9.8961434 9.76802798,8.94932053 9.76802798,7.54397855 L9.76802798,3.4514631 L8.25836531,3.4514631 L8.25836531,7.77323812 C8.25836531,10.3694182 9.81936375,11.0112903 11.1228463,11.0112903 C12.5979131,11.0112903 13.4728534,10.2319718 13.8673578,9.63627947 L13.9016746,9.63627947 L13.9873273,10.8429663 L13.9876063,10.8429663 Z M22.6323849,10.8429663 L24.1417686,10.8429663 L24.1417686,6.42910486 C24.1417686,3.89413351 22.3578501,3.28313903 21.2086539,3.28313903 C19.8365377,3.28313903 18.8759447,3.97037121 18.4644214,4.67290557 L18.4301046,4.67290557 L18.344173,3.4514631 L17.0063736,3.4514631 C17.0577094,4.06218433 17.0750073,4.68820777 17.0750073,5.45195089 L17.0750073,10.8432395 L18.5843909,10.8432395 L18.5843909,6.3985005 C18.5843909,6.16951419 18.6187078,5.94025463 18.6873415,5.77275032 C18.9445784,5.02403614 19.7165682,4.39828596 20.711199,4.39828596 C22.13493,4.39828596 22.6323849,5.39046888 22.6323849,6.58185349 L22.6323849,10.842693 L22.6323849,10.8429663 Z M34.1243467,10.8429663 L36.7999454,3.4514631 L35.3081387,3.4514631 L34.1246257,7.16251688 C33.8500908,8.03310206 33.6271708,8.8118741 33.4899033,9.56004179 L33.4385676,9.56004179 C33.2496853,8.8118741 33.0097463,8.03310206 32.7008947,7.14721468 L31.4144311,3.4514631 L30.1449864,3.4514631 L28.7901681,7.22345236 C28.5156332,8.01752661 28.2413774,8.8118741 28.0524952,9.56004179 L28.0011594,9.56004179 C27.846873,8.79629867 27.623953,8.03310206 27.383735,7.20815018 L26.2858746,3.4514631 L24.7421741,3.4514631 L27.2464676,10.8429663 L28.6185838,10.8429663 L29.9566622,7.33029443 C30.2482159,6.53622018 30.5054529,5.77275032 30.711354,4.88686296 L30.7456709,4.88686296 C30.951293,5.75717488 31.191511,6.49031362 31.4830648,7.3152655 L32.7525094,10.8429663 L34.1246257,10.8429663 L34.1243467,10.8429663 Z M41.9287809,8.35362823 C41.9287809,8.49107468 41.8944641,8.6438233 41.8431283,8.78126972 C41.6029103,9.40729316 40.9168522,10.0182877 39.8362897,10.0182877 C39.0642999,10.0182877 38.4125587,9.60567509 38.4125587,8.73536316 C38.4125587,7.2999633 40.2818508,7.04009936 41.9287809,7.07070374 L41.9287809,8.35362823 L41.9287809,8.35362823 Z M42.151701,10.8429663 L43.5238172,10.8429663 C43.4205876,10.3390871 43.3865498,9.71279039 43.3865498,9.07119154 L43.3865498,6.30723388 C43.3865498,4.8256542 42.7691254,3.28313903 40.230515,3.28313903 C39.1842694,3.28313903 38.1893596,3.54300298 37.5033015,3.94004009 L37.8461911,4.8256542 C38.4292986,4.48982583 39.2356052,4.27586846 40.007595,4.27586846 C41.7055818,4.27586846 41.8941851,5.37571321 41.8941851,5.98643445 L41.8941851,6.13945633 C38.6868145,6.12388089 36.902896,7.10130812 36.902896,8.88838504 C36.902896,9.95735216 37.7605384,11.0110171 39.4415063,11.0110171 C40.6250194,11.0110171 41.5169786,10.4918357 41.9801167,9.91144559 L42.0314525,9.91144559 L42.151422,10.8432395 L42.151701,10.8429663 Z M51.7057368,3.4514631 L50.1107005,3.4514631 L48.4637705,7.7885403 C48.2581483,8.32302385 48.086564,8.88811179 47.9319987,9.33105548 L47.8976818,9.33105548 C47.7606934,8.88838504 47.5545133,8.30772167 47.3661891,7.81914468 L45.5479537,3.4514631 L43.9015816,3.4514631 L46.9719637,10.2623029 C47.0403184,10.430627 47.0746353,10.5377423 47.0746353,10.61398 C47.0746353,10.6904909 47.0230205,10.7970597 46.9543868,10.9345061 C46.6117762,11.6217383 46.0967444,12.1409197 45.6849421,12.4311147 C45.288881,12.726372 44.8414933,12.9489311 44.3644407,13.0880158 L44.7416471,14.2179184 C45.1191325,14.1567097 45.8570844,13.9282699 46.5941993,13.3476065 C47.623705,12.553259 48.3608199,11.2553056 49.4416613,8.72006098 L51.7057368,3.45173635 L51.7057368,3.4514631 Z" id="形状"></path>
                    <path d="M71.7381317,7.13163924 C71.7381317,8.79684516 70.6575692,10.0032587 69.2168193,10.0032587 C67.7414735,10.0032587 66.6952279,8.78126972 66.6952279,7.16251688 C66.6952279,5.7577214 67.4672176,4.29117064 69.2508572,4.29117064 C71.0347757,4.29117064 71.7381317,5.87931913 71.7381317,7.13163924 Z M73.2818322,7.08600594 C73.2818322,4.82592745 71.669498,3.28341229 69.285174,3.28341229 C66.9867817,3.28341229 65.1688253,4.73438759 65.1688253,7.20842344 C65.1688253,9.54473961 66.901129,11.0110171 69.1481856,11.0110171 C71.1550241,11.0110171 73.2818322,9.81963247 73.2818322,7.08600594 L73.2818322,7.08600594 Z M78.084518,4.55103459 C78.2901402,4.55103459 78.4447055,4.56633677 78.5989919,4.59694115 L78.5989919,3.32904559 C78.4584366,3.29705041 78.3144622,3.28172928 78.1701707,3.28341229 C77.1582419,3.28341229 76.2489847,3.90916247 75.8717783,4.90243839 L75.8031446,4.90243839 L75.7518088,3.4514631 L74.4310284,3.4514631 C74.4823642,4.13869527 74.4996621,4.88686296 74.4996621,5.75772138 L74.4996621,10.8429663 L75.9917478,10.8429663 L75.9917478,6.90237968 C75.9917478,6.67339337 76.0260647,6.45943599 76.0603816,6.27635624 C76.2662827,5.26859787 77.0209745,4.55076133 78.084518,4.55076133 L78.084518,4.55103459 Z M79.4906721,10.8429663 L81.0003348,10.8429663 L81.0003348,0 L79.4906721,0 L79.4906721,10.842693 L79.4906721,10.8429663 Z M88.5126572,7.74290699 C88.5126572,7.95686438 88.4956383,8.13994411 88.4443025,8.32302385 C88.1697677,9.33132872 87.2434916,9.92674778 86.2315628,9.92674778 C84.6019307,9.92674778 83.7788841,8.68972984 83.7788841,7.19312124 C83.7788841,5.55906619 84.7051602,4.3370772 86.2658797,4.3370772 C87.3977779,4.3370772 88.2211035,5.03988482 88.4443025,5.89516782 C88.4956383,6.06267213 88.5126572,6.29220493 88.5126572,6.45970924 L88.5126572,7.74290699 L88.5126572,7.74290699 Z M90,0.00409880562 L90,0 L88.5126572,0 L88.5126572,4.41358814 L88.4786194,4.41358814 C88.101134,3.81789583 87.2434916,3.28341227 85.9743259,3.28341229 C83.9501894,3.28341229 82.2349046,4.79532309 82.2522025,7.25378349 C82.2522025,9.49910628 83.7959031,11.0110171 85.8027416,11.0110171 C87.0593523,11.0110171 88.0149233,10.4699755 88.5171212,9.73410417 L88.5171212,10.8866868 L90,10.8866868 L90,0.00409880562 L90,0.00409880562 Z" id="形状"></path>
                </g>
            </g>
        </g>
    </g>
</svg>